<?xml version="1.0" encoding="utf-8"?>
<!-- Generator: Adobe Illustrator 28.3.0, SVG Export Plug-In . SVG Version: 6.00 Build 0)  -->
<svg version="1.1" id="Ebene_1" xmlns="http://www.w3.org/2000/svg" xmlns:xlink="http://www.w3.org/1999/xlink" x="0px" y="0px"
	 viewBox="0 0 462.05 178.58" style="enable-background:new 0 0 462.05 178.58;" xml:space="preserve">
<style type="text/css">
	.st0{fill:#FFFFFF;}
</style>
<g>
	<polygon class="st0" points="111.32,84.27 87.41,55.82 73.73,60.26 97.72,87.64 	"/>
	<path class="st0" d="M139.52,87.72l-5.5-7.67l-20.24,5.02l6.54,7.79C127.41,91.57,133.87,89.85,139.52,87.72z"/>
	<polygon class="st0" points="133.16,78.86 111.1,48.13 88.81,55.36 112.8,83.91 	"/>
	<polygon class="st0" points="71.33,59.6 51.82,37.34 29.78,43.09 53.11,65.51 	"/>
	<path class="st0" d="M28.62,41.98l22.19-5.79l-7.64-8.71l-9.52,2.73c-2.63,3.15-4.92,6.54-6.79,10.09L28.62,41.98z"/>
	<polygon class="st0" points="86.46,54.69 68.28,33.05 53.3,36.96 72.75,59.14 	"/>
	<path class="st0" d="M118.76,93.13l-6.46-7.69L98.74,88.8l5.39,6.14C109.25,94.52,114.16,93.91,118.76,93.13z"/>
	<path class="st0" d="M102.43,95.08l-5.18-5.91l-15.51,3.84l2.77,2.66C90.75,95.69,96.76,95.49,102.43,95.08z"/>
	<path class="st0" d="M160.07,73.6l-24.63,6.1l5.39,7.51C152.13,82.75,158.05,77.45,160.07,73.6z"/>
	<path class="st0" d="M27.07,42.38l-0.86-0.82c-0.19,0.39-0.39,0.79-0.57,1.19L27.07,42.38z"/>
	<path class="st0" d="M82.51,95.66l-2.35-2.26l-7.96,1.97c2.43,0.11,4.91,0.19,7.41,0.24C80.59,95.63,81.56,95.65,82.51,95.66z"/>
	<path class="st0" d="M67.51,95.13L79,92.28L52.76,67.06L36.3,72.4l21.28,21.97C60.78,94.68,64.12,94.93,67.51,95.13z"/>
	<polygon class="st0" points="96.23,88.01 72.31,60.72 54.23,66.58 80.57,91.89 	"/>
	<path class="st0" d="M121.56,17.75c-1.52-1.51-3.13-2.94-4.77-4.28c-2.31-1.87-4.74-3.56-7.23-5.02l-20.94,6l7.18,10.01
		L121.56,17.75z"/>
	<polygon class="st0" points="67.31,31.89 59.64,22.76 44.63,27.06 52.29,35.81 	"/>
	<path class="st0" d="M0.9,70.37c0,3.04,2.52,6.61,6.91,9.84l25.98-8.43l-9.69-10l0.98-0.95l10.15,10.48l16.4-5.32l-23.41-22.5
		l-3.29,0.86c-3.2,7.46-4.82,15.74-4.82,24.6v0.58l-6.14,0l-0.02-0.55c-0.01-0.3-0.29-6.9,1.03-12.45
		C11.51,58.18,0.9,63.75,0.9,70.37z"/>
	<path class="st0" d="M35.31,28.31l6.87-1.97l-2.26-2.58C38.29,25.21,36.75,26.74,35.31,28.31z"/>
	<path class="st0" d="M78.89,0.91l8.88,12.37l20.12-5.77C98.99,2.67,89.25,0.46,78.89,0.91z"/>
	<path class="st0" d="M61.99,4.17v6.49l-0.4,0.13c-0.03,0.01-3.1,0.99-7.49,3.26l6.02,7.16l26.26-7.53L77.27,1
		C69.25,1.56,63.43,3.62,61.99,4.17z"/>
	<path class="st0" d="M40.95,22.86l2.69,3.07l15.04-4.31l-5.82-6.92C48.58,17.02,44.57,19.76,40.95,22.86z"/>
	<path class="st0" d="M34.85,72.87L9.22,81.19c6.92,4.58,20.42,10.27,46.25,12.97L34.85,72.87z"/>
	<path class="st0" d="M160.7,72.04c0.11-0.39,0.16-0.75,0.16-1.08c0-6.27-10.19-13.73-13.94-14.76c0.43,2.12,1.5,7.92,1.26,12.78
		l-0.03,0.55h-5.97l0.02-0.59c0-0.14,0.34-13.76-5.93-28.97l-23.81,7.72l22.12,30.82L160.7,72.04z"/>
	<path class="st0" d="M135.74,38.7c-3.27-7.54-7.67-14.21-13.07-19.83l-26.02,6.79l14.98,20.87L135.74,38.7z"/>
	<polygon class="st0" points="110.27,46.97 95.23,26.02 69.74,32.67 87.86,54.24 	"/>
	<polygon class="st0" points="94.38,24.83 87.22,14.86 61.07,22.35 68.77,31.51 	"/>
</g>
<polygon class="st0" points="100.09,138.27 102.82,141.08 102.82,137.45 "/>
<polygon class="st0" points="144.41,123.66 127.25,103.25 81.08,118.64 99.02,137.16 102.82,136.03 102.82,112.04 111.75,112.04 
	111.75,133.38 "/>
<path class="st0" d="M78.59,118.03l-17.14-17.7c-2.12-0.21-4.26-0.45-6.36-0.73l-44.22,10.96v9.76l17.64,14.4l21.51-7.17v-15.52
	h8.92v12.54L78.59,118.03z"/>
<path class="st0" d="M123.81,97.03l3.89,4.63l23.19-7.73v-4.94C148.12,90.15,138.42,93.97,123.81,97.03z"/>
<path class="st0" d="M63.54,100.53l16.49,17.02l46.28-15.43l-4.02-4.78C103.11,101.21,83.35,102.28,63.54,100.53z"/>
<polygon class="st0" points="128.65,102.79 145.83,123.24 150.89,121.74 150.89,95.37 "/>
<path class="st0" d="M10.87,109.16l40.58-10.06c-13.71-2.02-27.34-5.44-40.58-10.17V109.16z"/>
<polygon class="st0" points="58.94,161.32 58.94,176.06 69.29,176.06 74.89,174.34 "/>
<polygon class="st0" points="76.16,175.37 73.93,176.06 77.01,176.06 "/>
<polygon class="st0" points="146.79,124.38 150.89,129.26 150.89,123.16 "/>
<polygon class="st0" points="102.82,165.75 102.82,143.04 98.62,138.7 58.94,150.5 58.94,159.56 76.46,173.86 "/>
<polygon class="st0" points="122.29,161.18 136.71,176.06 150.89,176.06 150.89,152.38 "/>
<polygon class="st0" points="150.89,150.95 150.89,131.38 145.36,124.8 111.75,134.8 111.75,150.29 121.23,160.08 "/>
<polygon class="st0" points="50.02,176.06 50.02,154.04 49.23,153.39 10.87,164.79 10.87,176.06 "/>
<polygon class="st0" points="134.81,176.06 120.83,161.63 111.75,164.43 111.75,176.06 "/>
<polygon class="st0" points="119.76,160.53 111.75,152.26 111.75,163 "/>
<polygon class="st0" points="77.73,174.89 79.17,176.06 102.82,176.06 102.82,167.17 "/>
<polygon class="st0" points="47.95,152.35 28.23,136.26 10.87,142.04 10.87,163.37 "/>
<polygon class="st0" points="26.98,135.24 10.87,122.09 10.87,140.61 "/>
<polygon class="st0" points="29.76,135.75 49.53,151.88 50.02,151.73 50.02,128.99 "/>
<polygon class="st0" points="97.55,137.6 79.65,119.12 58.94,126.02 58.94,149.08 "/>
<g>
	<path class="st0" d="M169.04,105.26V55.38h12.78c10.98,0,16.6,4.58,16.6,14.87c0,10-5.77,15.21-16.6,15.21h-4.52v19.8H169.04z
		 M182.17,78.17c4.03,0,7.78-1.81,7.78-7.92c0-5.35-2.78-7.36-7.64-7.36h-5v15.28H182.17z"/>
	<rect x="202.88" y="55.38" class="st0" width="7.36" height="49.88"/>
	<path class="st0" d="M233.04,105.26l-0.42-3.82c-2.85,2.92-6.04,4.45-9.79,4.45c-5.07,0-8.13-3.47-8.13-9.52
		c0-4.1,1.46-7.22,4.58-9.52c2.78-2.15,7.37-3.68,12.99-5.35c0.42-4.72-0.63-7.02-4.31-7.02c-3.06,0-4.79,1.8-5.83,5l-5.98-1.46
		c1.6-5.84,5.14-9.59,12.23-9.59c7.85,0,11.12,3.75,11.12,11.39v18.62l0.55,6.81H233.04z M232.06,86.71
		c-3.96,1.11-6.18,2.01-7.78,3.33c-1.46,1.18-2.01,3.06-2.01,5.21c0,2.71,1.18,4.45,3.54,4.45c2.29,0,4.65-1.32,6.25-3.47V86.71z"/>
	<path class="st0" d="M262.83,105.26V81.02c0-3.96-1.18-5.56-3.75-5.56c-1.94,0-3.82,1.04-6.04,3.61v26.19h-7.36V69.14h7.15v4.31
		c2.99-3.33,5.77-5,9.45-5c3.06,0,5.28,1.18,6.39,3.26c1.18,1.88,1.46,4.52,1.46,8.48v25.08H262.83z"/>
	<path class="st0" d="M287.85,105.89c-8.68,0-12.92-5.77-12.92-18.89c0-11.67,4.52-18.55,13.06-18.55c9.38,0,12.64,7.43,12.64,16.67
		c0,1.04,0,2.22-0.07,3.54h-18.55c0.28,7.57,1.88,11.11,6.18,11.11c3.33,0,5.14-2.29,6.18-6.04l6.18,1.25
		C298.62,102.62,294.38,105.89,287.85,105.89 M282.08,83.31h11.46c0-5.35-1.67-8.96-5.56-8.96
		C284.38,74.35,282.57,77.54,282.08,83.31"/>
	<path class="st0" d="M321.67,105.05c-1.81,0.35-3.61,0.56-5.7,0.56c-5.97,0-8.2-2.22-8.2-9.1V75.32h-4.79v-6.18h4.79V57.4h7.29
		v11.74h6.6v6.18h-6.6v19.94c0,2.57,0.97,3.61,3.13,3.61c1.11,0,2.29-0.14,3.47-0.49V105.05z"/>
	<path class="st0" d="M343.11,105.26l-0.42-3.82c-2.85,2.92-6.04,4.45-9.79,4.45c-5.07,0-8.13-3.47-8.13-9.52
		c0-4.1,1.46-7.22,4.58-9.52c2.78-2.15,7.37-3.68,12.99-5.35c0.42-4.72-0.63-7.02-4.31-7.02c-3.06,0-4.79,1.8-5.83,5l-5.98-1.46
		c1.6-5.84,5.14-9.59,12.23-9.59c7.85,0,11.12,3.75,11.12,11.39v18.62l0.55,6.81H343.11z M342.14,86.71
		c-3.96,1.11-6.18,2.01-7.78,3.33c-1.46,1.18-2.01,3.06-2.01,5.21c0,2.71,1.18,4.45,3.54,4.45c2.29,0,4.65-1.32,6.25-3.47V86.71z"/>
	<path class="st0" d="M355.75,105.26V69.14h7.15v5.97c2.36-4.31,4.72-6.67,8.54-6.67c0.35,0,0.69,0.07,1.18,0.14v7.57
		c-0.55-0.07-1.11-0.14-1.46-0.14c-3.54,0-6.11,2.15-8.06,6.18v23.06H355.75z"/>
	<path class="st0" d="M376.16,55.04h7.64v8.2h-7.64V55.04z M376.3,69.14h7.36v36.12h-7.36V69.14z"/>
	<path class="st0" d="M407.12,105.26v-4.31c-3.06,3.33-5.84,4.93-9.52,4.93c-3.05,0-5.14-1.11-6.32-3.19
		c-1.18-1.88-1.53-4.52-1.53-8.47V69.14h7.5v24.24c0,3.96,0.97,5.56,3.68,5.56c1.88,0,3.75-1.04,5.91-3.61V69.14h7.43v36.12H407.12z
		"/>
	<path class="st0" d="M453.23,105.26V80.74c0-4.03-1.46-5.28-3.4-5.28c-1.87,0-3.75,1.18-5.56,3.4v26.4h-7.37V81.02
		c0-3.82-0.83-5.56-3.26-5.56c-1.94,0-3.96,1.46-5.69,3.68v26.12h-7.36V69.14h7.15v4.24c2.71-3.13,5.7-4.93,9.1-4.93
		c3.61,0,5.7,1.81,6.67,4.93c2.92-3.26,5.7-4.93,9.31-4.93c5.77,0,7.71,4.38,7.71,11.11v25.7H453.23z"/>
	<polygon class="st0" points="169.04,176.67 169.04,126.79 194.95,126.79 194.95,134.29 177.3,134.29 177.3,147.28 190.43,147.28 
		190.43,154.51 177.3,154.51 177.3,176.67 	"/>
	<path class="st0" d="M196.66,176.67v-36.12h7.15v5.97c2.36-4.31,4.72-6.67,8.54-6.67c0.35,0,0.69,0.07,1.18,0.14v7.57
		c-0.55-0.07-1.11-0.14-1.46-0.14c-3.54,0-6.11,2.15-8.06,6.18v23.06H196.66z"/>
	<path class="st0" d="M217.07,126.44h7.64v8.2h-7.64V126.44z M217.21,140.54h7.36v36.12h-7.36V140.54z"/>
	<path class="st0" d="M247.06,176.46c-1.81,0.35-3.61,0.56-5.7,0.56c-5.97,0-8.2-2.22-8.2-9.1v-21.19h-4.79v-6.18h4.79V128.8h7.29
		v11.74h6.6v6.18h-6.6v19.94c0,2.57,0.97,3.61,3.13,3.61c1.11,0,2.29-0.14,3.47-0.49V176.46z"/>
	<polygon class="st0" points="249.92,176.67 249.92,171.11 264.09,146.73 251.24,146.73 251.24,140.54 272.84,140.54 272.84,146.17 
		258.67,170.48 273.26,170.48 273.26,176.67 	"/>
	<rect x="277.46" y="126.79" class="st0" width="7.36" height="49.88"/>
	<path class="st0" d="M307.62,176.67l-0.42-3.82c-2.85,2.92-6.04,4.45-9.79,4.45c-5.07,0-8.13-3.47-8.13-9.52
		c0-4.1,1.46-7.22,4.58-9.52c2.78-2.15,7.37-3.68,12.99-5.35c0.42-4.72-0.63-7.02-4.31-7.02c-3.06,0-4.79,1.8-5.83,5l-5.98-1.46
		c1.6-5.84,5.14-9.59,12.23-9.59c7.85,0,11.12,3.75,11.12,11.39v18.62l0.55,6.81H307.62z M306.65,158.12
		c-3.96,1.11-6.18,2.01-7.78,3.33c-1.46,1.18-2.01,3.06-2.01,5.21c0,2.71,1.18,4.45,3.54,4.45c2.29,0,4.65-1.32,6.25-3.47V158.12z"
		/>
	<path class="st0" d="M320.26,176.67v-36.12h7.15v5.97c2.36-4.31,4.72-6.67,8.54-6.67c0.35,0,0.69,0.07,1.18,0.14v7.57
		c-0.56-0.07-1.11-0.14-1.46-0.14c-3.54,0-6.11,2.15-8.06,6.18v23.06H320.26z"/>
</g>
</svg>
